<?xml version="1.0" encoding="UTF-8"?>
<svg id="RIVERS" xmlns="http://www.w3.org/2000/svg" xmlns:xlink="http://www.w3.org/1999/xlink" viewBox="0 0 4282.56 3498.72">
  <defs>
    <style>
      .cls-1 {
        filter: url(#drop-shadow-3);
      }

      .cls-1, .cls-2, .cls-3, .cls-4 {
        fill: #aadfee;
      }

      .cls-5 {
        fill: url(#linear-gradient-3);
      }

      .cls-5, .cls-6, .cls-7, .cls-8, .cls-9, .cls-10 {
        opacity: .7;
      }

      .cls-11 {
        fill: url(#linear-gradient-2);
      }

      .cls-6, .cls-12 {
        fill: #9da23b;
      }

      .cls-13 {
        fill: none;
      }

      .cls-14 {
        opacity: .47;
      }

      .cls-15 {
        filter: url(#drop-shadow-4);
      }

      .cls-7 {
        fill: url(#linear-gradient-6);
      }

      .cls-2 {
        filter: url(#drop-shadow-1);
      }

      .cls-8 {
        fill: url(#linear-gradient-4);
      }

      .cls-9 {
        fill: url(#linear-gradient-5);
      }

      .cls-10 {
        fill: url(#linear-gradient-7);
      }

      .cls-16 {
        fill: url(#linear-gradient);
      }

      .cls-17 {
        clip-path: url(#clippath);
      }

      .cls-3 {
        filter: url(#drop-shadow-2);
      }
    </style>
    <clipPath id="clippath">
      <rect class="cls-13" x="281.28" y="452.4" width="3840" height="2160" rx="3.68" ry="3.68"/>
    </clipPath>
    <filter id="drop-shadow-1" x="145.92" y="1906.08" width="1980.24" height="1592.64" filterUnits="userSpaceOnUse">
      <feOffset dx="7" dy="7"/>
      <feGaussianBlur result="blur" stdDeviation="20"/>
      <feFlood flood-color="#000" flood-opacity=".25"/>
      <feComposite in2="blur" operator="in"/>
      <feComposite in="SourceGraphic"/>
    </filter>
    <filter id="drop-shadow-2" x="2975.04" y=".24" width="1307.52" height="1262.88" filterUnits="userSpaceOnUse">
      <feOffset dx="7" dy="7"/>
      <feGaussianBlur result="blur-2" stdDeviation="20"/>
      <feFlood flood-color="#000" flood-opacity=".25"/>
      <feComposite in2="blur-2" operator="in"/>
      <feComposite in="SourceGraphic"/>
    </filter>
    <filter id="drop-shadow-3" x="0" y="0" width="1544.88" height="1282.8" filterUnits="userSpaceOnUse">
      <feOffset dx="7" dy="7"/>
      <feGaussianBlur result="blur-3" stdDeviation="20"/>
      <feFlood flood-color="#000" flood-opacity=".25"/>
      <feComposite in2="blur-3" operator="in"/>
      <feComposite in="SourceGraphic"/>
    </filter>
    <filter id="drop-shadow-4" x="588.96" y="485.52" width="3208.32" height="2153.76" filterUnits="userSpaceOnUse">
      <feOffset dx="7" dy="7"/>
      <feGaussianBlur result="blur-4" stdDeviation="20"/>
      <feFlood flood-color="#000" flood-opacity=".25"/>
      <feComposite in2="blur-4" operator="in"/>
      <feComposite in="SourceGraphic"/>
    </filter>
    <linearGradient id="linear-gradient" x1="1092.64" y1="2211.73" x2="1092.15" y2="2190.22" gradientUnits="userSpaceOnUse">
      <stop offset="0" stop-color="#4c090a"/>
      <stop offset="1" stop-color="#82351b"/>
    </linearGradient>
    <linearGradient id="linear-gradient-2" x1="3403.25" y1="620.26" x2="3402.76" y2="598.75" xlink:href="#linear-gradient"/>
    <linearGradient id="linear-gradient-3" x1="1351.17" y1="2405.58" x2="1350.62" y2="2381.76" xlink:href="#linear-gradient"/>
    <linearGradient id="linear-gradient-4" x1="859.16" y1="2574.47" x2="858.61" y2="2550.65" xlink:href="#linear-gradient"/>
    <linearGradient id="linear-gradient-5" x1="3716.83" y1="897.06" x2="3716.28" y2="873.24" xlink:href="#linear-gradient"/>
    <linearGradient id="linear-gradient-6" x1="653.63" y1="1029.36" x2="653.15" y2="1008.6" xlink:href="#linear-gradient"/>
    <linearGradient id="linear-gradient-7" x1="1017.41" y1="726.29" x2="1016.81" y2="700.46" xlink:href="#linear-gradient"/>
  </defs>
  <g class="cls-14">
    <g class="cls-17">
      <path class="cls-2" d="M825.87,3431.15c96.16-5.94,214.68-12.54,330.78-18.48,3.42-.17,6.83-.33,10.25-.53-.17-.26-.35-.51-.51-.77-15.53-25.41-25.52-54.68-34.92-83.18-9.5-28.78-18.14-57.42-23.4-87.52-5.36-30.7-8.88-61.56-16.81-91.71-13.84-52.64-52.67-90.11-78.51-135.57-15.3-26.94-23.34-58.17-36.97-86.12-14.76-30.31-35.3-53.28-39.32-88.76-3.7-32.75,10.34-66.37,18.37-97.24,8.76-33.75,20.7-62.56,42.27-88.96,17.38-21.29,36.94-40.4,54.67-61.31,19.52-23.01,37.2-48.41,54.61-73.32,16.36-23.38,33.44-46.17,51.42-68.14,17.35-21.26,36.99-39.96,52.89-62.65,12.25-17.47,20.83-37.26,26.06-58.42,5.33-21.48,4.46-50.25,21.69-65.43,9.71-8.57,24.12-6.63,38.4-2.86.1.03.19.06.29.09,15.33,5.22,29.79,12.33,38.1,15.95,32.81,14.28,60.45,29.64,80.59,62.72,20.52,33.67,31.19,73.08,51.61,106.85,23.75,39.29,58.34,71.4,95.69,94.59,40.6,25.22,83.74,39.63,127.88,55.23,52.35,18.52,102.07,44.93,152.92,67.65,50.96,22.76,101.92,43.04,151.59,69.32,19.16,10.15,38.49,17.43,58.96,22.73,2.38.61,4.69-1.2,4.63-3.66-.07-2.82-.15-5.63-.22-8.45-.48-18.32-1.02-36.38-1.65-54.13-.11-3.03-.22-6.07-.32-9.09-.06-1.62-1.16-3-2.73-3.42-8.43-2.26-16.8-4.64-25.13-7.24-20.89-6.56-41.49-14.28-61.5-23.51-21.14-9.76-38.16-26.85-58.38-38.4-19.49-11.12-43.7-11.27-64.35-19.06-24.27-9.13-45.31-28.32-69.75-37.95-48.58-19.13-95.72-42.7-141.83-68.03-22.59-12.4-44.22-26.38-65.29-41.57-23.32-16.78-39.78-39.39-57.34-62.62-12.28-16.23-26.49-30.49-40.31-45.12-17.81-18.87-29.43-38.98-39.1-63.74-11-28.2-27.52-49.76-55.86-57.44-24.21-6.57-48.91-11.13-72.56-20.01-11.36-4.29-21.29-11.22-31.44-17.79-.4-.26-.68-.66-.9-1.08-.09-.18-.25-.33-.48-.43-1.01-.42-1.97-.87-2.92-1.3-.14-.06-.27-.13-.4-.21-7.09-4.39-14.4-8.38-22.48-10.91-.42-.12-.8-.1-1.13.04-.65.27-1.38.24-2.06.06-8.54-2.25-17.26-1.95-28.13,3.69-22.42,11.62-37.7,36.11-58.47,50.7-23.26,16.28-35.62,41.21-51.2,65.17-6.92,10.63-13.37,21.47-19.25,32.79-6.49,12.42-12.71,37.87-27.93,41.13-.15.03-.3.06-.44.1-.49.14-.99.22-1.49.18-18.56-1.68-37.17-1.79-55.65-4.86-22.27-3.74-42.61-9.38-65.38-10.35-44.29-1.87-86.69-11.2-130.48-17.05-18.9-2.52-37.93-1.13-56.05-8.6-17.43-7.19-31.65-38.6-43.61-53.51-30.73-38.27-69.26-69.49-103.57-103.85-29.86-29.88-55.85-60.03-92.68-79.91-19.58-10.56-40.52-17.83-60.38-27.75-20.85-10.4-41.07-22.2-61.96-32.49-39.53-19.47-80.39-29.55-122.43-40.16-19.53-4.94-38.85-10.24-57.96-16.2-2.66-.83-5.25,1.45-4.73,4.19.59,3.13,1.19,6.3,1.8,9.51,3.88,20.83,7.89,43.11,11.94,66.8.64,3.73,1.29,7.55,1.93,11.36.28,1.66,1.64,2.91,3.32,3.06,33.93,2.89,68.51,9.77,101.54,17,45.92,10.05,81.56,42.38,121.43,66.85,41.47,25.41,96.74,29.28,128.39,70.69,25.38,33.22,38.07,75.68,56.81,113.17,8.05,16.13,17.5,32.55,29.84,45.29,13.71,14.18,30.51,20.79,48.54,26.06,18.74,5.45,38.43,7.3,57.7,8.36,22.4,1.22,45.36,11.86,65.77,21.27,18.44,8.5,35.66,17.44,55.21,22.52,21.99,5.7,57.84,7.09,71.83,29.86.4.66.58,1.44.51,2.21-2.87,33.89-24.44,66.09-40.48,93.72-19.93,34.27-41.61,68.84-56.81,105.99-32.59,79.68-61.66,171.75-18.4,253.81,10.46,19.84,22.19,38.8,30.92,59.66,9.13,21.76,12.15,46.3,13.01,69.94,1.86,50.71-12.53,101.37-22.79,150.23-10.16,48.33-10.9,99.52-27.84,145.88-8.36,22.87-14.67,46.56-20.21,70.49-.56,2.4,1.36,4.66,3.82,4.5,2.94-.18,5.9-.36,8.89-.54Z"/>
      <path class="cls-4" d="M1955.16,2698.21c-28.47-14.19-57.76-25.44-86.99-37.47-55.96-23.01-109.59-52.16-166.13-73.61-51.77-19.66-102.44-34.71-149.18-67.42-43.52-30.43-75.36-72.34-98.31-122.17-17.25-37.45-32-78.62-64.85-103.41-23.24-17.53-57.98-28.4-85.14-36.34-.06-.02-.13-.04-.19-.06-14.82-5.27-29.43-10.09-41.96-7.44-.13.03-.25.05-.38.05-10.43.79-19.64,4.85-24.47,15.48-.97,2.12,2.12,3.46,3.13,1.42,1.2-2.45,2.73-4.47,4.47-6.18-3.44,4.2-6.55,9.69-9.2,16.86-6.43,17.43-5.33,37.31-7.89,55.61-4.33,30.97-26.2,57.09-45.49,78.65-17.97,20.04-38.02,37.15-54.91,58.43-19.1,24.1-36.39,49.8-53.85,75.27-32.54,47.5-74.47,86.36-105.87,134.58-14.89,22.86-20.63,51.43-28.54,77.65-8.05,26.68-14.72,53.3-13.17,81.67,1.38,25.32,14.01,47.26,26.49,67.88,18.06,29.86,28.81,61.85,42.75,93.88,21.62,49.68,62.49,85.71,82.01,136.77,11.51,30.06,14.52,64.15,19.39,96.01,4.5,29.46,11.86,57.29,20.62,85.57,10.23,33.11,22.12,63.49,38.03,90.83.69,1.19,2,1.89,3.37,1.82,2.67-.13,5.33-.26,8.01-.42-.17-.26-.35-.51-.51-.77-15.53-25.41-25.52-54.68-34.92-83.18-9.5-28.78-18.14-57.42-23.4-87.52-5.36-30.7-8.88-61.56-16.81-91.71-13.84-52.64-52.67-90.11-78.51-135.57-15.3-26.94-23.34-58.17-36.97-86.12-14.76-30.31-35.3-53.28-39.32-88.76-3.7-32.75,10.34-66.37,18.37-97.24,8.76-33.75,20.7-62.56,42.27-88.96,17.38-21.29,36.94-40.4,54.67-61.31,19.52-23.01,37.2-48.41,54.61-73.32,16.36-23.38,33.44-46.17,51.42-68.14,17.35-21.26,36.99-39.96,52.89-62.65,12.25-17.47,20.83-37.26,26.06-58.42,5.33-21.48,4.46-50.25,21.69-65.43,9.71-8.57,24.12-6.63,38.4-2.86.1.03.19.06.29.09,15.33,5.22,29.79,12.33,38.1,15.95,32.81,14.28,60.45,29.64,80.59,62.72,20.52,33.67,31.19,73.08,51.61,106.85,23.75,39.29,58.34,71.4,95.69,94.59,40.6,25.22,83.74,39.63,127.88,55.23,52.35,18.52,102.07,44.93,152.92,67.65,50.96,22.76,101.92,43.04,151.59,69.32,19.16,10.15,38.49,17.43,58.96,22.73,2.38.61,4.69-1.2,4.63-3.66-.05-1.88-.1-3.75-.15-5.63-.04-1.66-1.2-3.08-2.81-3.48-8.01-1.97-15.94-4.21-23.73-6.76-26.83-8.77-51.87-24.92-77.25-37.59Z"/>
      <path class="cls-4" d="M381.16,2023.78c21.1,9.72,41.3,21.69,62.11,32.11,19.89,9.93,40.75,17.11,60.54,27.35,42.59,22.09,72.81,62.19,106.9,96.36,34.73,34.82,72.64,67.04,101.47,108.1,9.41,13.4,16.77,26.24,30.96,34.17,15.37,8.61,35.71,7.46,52.4,8.79,22.48,1.77,44.82,7.93,67.13,11.58,22.91,3.75,45.97,5.22,69.1,6.37,22.48,1.13,43.3,6.49,65.29,11,17.91,3.67,36.83,2.94,55.16,2.94.68,0,1.36.16,1.92.54.76.52,1.74.74,2.93.48,14.27-3.12,20.77-17.01,26.91-30.12,12.86-27.45,27.88-52.42,42.93-78.49,15.82-27.38,40.91-38.58,63.3-58.02,10.59-9.17,19.49-18.92,31.74-25.7,11.9-6.59,23.56-2.81,35.34.7.37.11.72.28,1.04.49,11.89,8.09,23.1,17.76,35.51,24.78,17.35,9.8,37.55,13.53,56.41,18.08,20.03,4.82,40.5,9.5,55.11,26.29,12.94,14.84,17.49,36.06,25.23,54.07,17.05,39.86,56.03,68.17,81.1,101.78,28.91,38.76,64.22,63.99,104.37,87.52,45.31,26.57,93.06,50.57,141.24,70.26,24.29,9.91,47.16,21.58,69.57,35.91,19.05,12.17,40.18,15.61,61.5,20.66,22.64,5.37,38.67,23.23,58.17,35.33,20.36,12.61,42.95,20.88,65.27,28.31,13.47,4.5,26.97,8.59,40.57,12.33,2.4.66,4.74-1.21,4.66-3.69-.05-1.36-.1-2.73-.14-4.08-.06-1.62-1.16-3-2.73-3.42-8.43-2.26-16.8-4.64-25.13-7.24-20.89-6.56-41.49-14.28-61.5-23.51-21.14-9.76-38.16-26.85-58.38-38.4-19.49-11.12-43.7-11.27-64.35-19.06-24.27-9.13-45.31-28.32-69.75-37.95-48.58-19.13-95.72-42.7-141.83-68.03-22.59-12.4-44.22-26.38-65.29-41.57-23.32-16.78-39.78-39.39-57.34-62.62-12.28-16.23-26.49-30.49-40.31-45.12-17.81-18.87-29.43-38.98-39.1-63.74-11-28.2-27.52-49.76-55.86-57.44-24.21-6.57-48.91-11.13-72.56-20.01-11.36-4.29-21.29-11.22-31.44-17.79-.4-.26-.68-.66-.9-1.08-.09-.18-.25-.33-.48-.43-1.01-.42-1.97-.87-2.92-1.3-.14-.06-.27-.13-.4-.21-7.09-4.39-14.4-8.38-22.48-10.91-.42-.12-.8-.1-1.13.04-.65.27-1.38.24-2.06.06-8.54-2.25-17.26-1.95-28.13,3.69-22.42,11.62-37.7,36.11-58.47,50.7-23.26,16.28-35.62,41.21-51.2,65.17-6.92,10.63-13.37,21.47-19.25,32.79-6.49,12.42-12.71,37.87-27.93,41.13-.15.03-.3.06-.44.1-.49.14-.99.22-1.49.18-18.56-1.68-37.17-1.79-55.65-4.86-22.27-3.74-42.61-9.38-65.38-10.35-44.29-1.87-86.69-11.2-130.48-17.05-18.9-2.52-37.93-1.13-56.05-8.6-17.43-7.19-31.65-38.6-43.61-53.51-30.73-38.27-69.26-69.49-103.57-103.85-29.86-29.88-55.85-60.03-92.68-79.91-19.58-10.56-40.52-17.83-60.38-27.75-20.85-10.4-41.07-22.2-61.96-32.49-39.53-19.47-80.39-29.55-122.43-40.16-19.53-4.94-38.85-10.24-57.96-16.2-2.66-.83-5.25,1.45-4.73,4.19.46,2.41.92,4.85,1.38,7.3.26,1.35,1.25,2.46,2.57,2.86,11.93,3.59,23.94,6.93,36,9.99,47.96,12.19,96.38,19.16,142.03,40.17Z"/>
      <path class="cls-4" d="M872.85,3212.67c9.69-47.83,21.76-95.04,22.65-144.34.76-41.71-10.46-78.7-29.62-114.41-10.65-19.83-21.78-38.98-28.85-60.74-9.66-29.88-9.29-61.08-4.1-91.75,8.03-47.4,25.1-96.12,45.37-138.99,16.71-35.36,38.66-68.06,56.96-102.53,12.16-22.84,26.59-49.7,27.61-77.13.03-.77.3-1.49.75-2.11s.67-1.49.45-2.55c-.37-1.82-.83-3.53-1.39-5.17-.09-.27-.16-.56-.18-.84-.07-.83-.12-1.64-.23-2.45-.17-1.3-.77-2.14-1.54-2.56-.59-.32-1.02-.87-1.35-1.45-14.88-25.73-55.64-28.59-80.31-35.02-22.08-5.77-42.29-18.89-63.4-27.74-19.97-8.38-41.12-13.18-62.42-14.34-21.34-1.15-42.49-4.81-62.72-12.47-24.53-9.29-38.77-30.75-51.62-53.98-20.83-37.74-33.26-79.6-57.27-115.43-25.1-37.45-67.03-47.36-104.87-63.61-44.06-18.92-79.01-55.55-122.82-74.91-38.52-17.03-84.09-19.86-124.87-26.65-3.7-.61-7.52-1.04-11.44-1.36-2.39-.2-4.33,1.92-3.93,4.29.38,2.23.76,4.48,1.13,6.73.28,1.66,1.64,2.91,3.32,3.06,33.93,2.89,68.51,9.77,101.54,17,45.92,10.05,81.56,42.38,121.43,66.85,41.47,25.41,96.74,29.28,128.39,70.69,25.38,33.22,38.07,75.68,56.81,113.17,8.05,16.13,17.5,32.55,29.84,45.29,13.71,14.18,30.51,20.79,48.54,26.06,18.74,5.45,38.43,7.3,57.7,8.36,22.4,1.22,45.36,11.86,65.77,21.27,18.44,8.5,35.66,17.44,55.21,22.52,21.99,5.7,57.84,7.09,71.83,29.86.4.66.58,1.44.51,2.21-2.87,33.89-24.44,66.09-40.48,93.72-19.93,34.27-41.61,68.84-56.81,105.99-32.59,79.68-61.66,171.75-18.4,253.81,10.46,19.84,22.19,38.8,30.92,59.66,9.13,21.76,12.15,46.3,13.01,69.94,1.86,50.71-12.53,101.37-22.79,150.23-10.16,48.33-10.9,99.52-27.84,145.88-8.36,22.87-14.67,46.56-20.21,70.49-.56,2.4,1.36,4.66,3.82,4.5,2.05-.13,4.11-.25,6.18-.38,1.61-.1,2.97-1.23,3.35-2.79,6.71-27.16,14.15-54.01,22.77-80.9,13.81-43.01,14.55-90.6,23.56-134.96Z"/>
      <path class="cls-3" d="M4064.62,1162.01c27.12,9.34,54.14,19.07,81.21,28.58,4.59,1.61,9.16,3.29,13.72,5.05,2.74,1.05,5.53-1.36,4.91-4.23,0-.02,0-.04-.01-.07-8.21-37.88-6.99-62.99-1.78-80.8,2.03-6.86,24.09-42.68,51.36-85.53.27-.42.54-.85.81-1.27,1.44-2.26.07-5.26-2.59-5.63-5.6-.77-11.14-1.9-16.59-3.58-16.06-4.97-29.46-19.14-45.15-25.74-9.94-4.17-21.18-5.4-31.52-8.18-10.39-2.78-20.67-5.99-30.99-9.01-8.33-2.44-16.66-4.7-24.88-7.58-7.34-2.59-9.05-10.53-13.49-16.72-12.7-17.71-23.91-35.4-33.17-55.56-8.88-19.27-12.42-41.53-21.67-60.42-2.25-4.58-5.03-11.35-8.09-16.84-.27-.48-.4-1.01-.46-1.56-.05-.43-.19-.87-.45-1.31-5.63-9.71-12.64-17.02-21.35-23.45-14.72-10.87-24.93-24.09-35.73-39.27-16.53-23.28-41.18-39.75-53.63-66.35-6.75-14.41-5.87-32.26-8.51-47.96-2.52-15.13-8.1-29.18-15.71-41.99-8.85-14.92-19.65-28.97-29.54-43.14-8.31-11.88-16.23-24.13-24.73-35.87-.64-.89-.81-2-.59-3.07.17-.8.05-1.65-.49-2.45-13.26-19.7-31.54-34.35-50.48-47.18-12.89-8.74-28.79-10.42-40.84-20.68-9.2-7.81-16-18.79-24.01-27.92-8.66-9.84-19.06-22.3-10.64-36.29,7.69-12.73,19.13-21.32,30.13-30.4,15.72-12.95,29.02-28.63,40.14-46.31,8.7-13.84,17.1-32.7,14.21-49.78-1.57-9.35-5.24-16.64-11.16-23.5-3.42-3.95-8.22-7.07-12.04-10.42-6.12-5.39-9.29-14.38-12.62-21.9-4.65-10.47-11.03-19.75-16.14-29.92-5.92-11.79-5.1-24.64-7.18-37.48-1.98-12.28-8.71-23.37-12.14-35.13-2.62-9.01-2.02-18.59-1.19-28.18.16-1.9-1.15-3.61-3.03-3.95-.56-.1-1.13-.2-1.69-.3-9.18-1.61-18.87-3.29-28.99-5.03-.55-.09-1.1-.18-1.64-.28-2.46-.42-4.61,1.68-4.26,4.14,3.71,26.5,7.28,52.7,19.76,76.63,14.3,27.44,34.04,51.08,48.42,78.51,7.01,13.37,13.87,29.66,10.77,45.51-4.18,21.42-33.4,21.98-48.68,28.2-16.09,6.53-30.99,17.29-45.92,26.44-17.81,10.95-35.79,21.51-54.47,30.57-17.37,8.42-35.62,14.48-53.22,22.3-19.89,8.85-39.89,17.98-60.91,23-34.6,8.27-66.81-10.36-94.12-30.57-26.55-19.63-50.79-43.27-80.66-57.18-38.21-17.82-79-28.22-116.83-47.08-.92-.45-1.83-.93-2.73-1.4-1.34-.7-2.96-.51-4.11.47-1.54,1.32-3.07,2.6-4.59,3.84-4.12,3.39-8.13,6.47-11.95,9.14-35.13,24.61-101.47,94.02-113.55,106.76-1.13,1.19-1.34,2.98-.5,4.4,8.28,14.04,50.69,86.98,63.92,131.01.39,1.38.81,2.74,1.16,4.06.15.55.31,1.11.47,1.67.36,1.3,1.4,2.3,2.72,2.6.72.17,1.44.34,2.17.52,16.83,4.16,33.08,2.1,49.88-1.76,20-4.61,40.99-11.99,61.31-6.54,16.84,4.52,30.5,15.23,48.54,15.61,39.74.82,79.36-11.27,116.55,8.06,16.73,8.7,32.07,20.41,46.88,32.37,14.65,11.83,31.26,21.05,48.16,28.61,17.68,7.94,36.15,13.75,53.38,22.78,16.31,8.54,31.38,19.64,46.02,31.09,28.03,21.89,54.33,46.24,84.88,64.14,34.15,20,73.18,26.76,108.9,42.4,8.45,3.69,16.74,7.42,25.5,9.86,1.42.39,2.48,1.56,2.69,3.02,4.35,28.87,13.3,56.95,22.19,84.34,9.52,29.36,18.4,59,31.51,86.7,7.22,15.24,14.35,29.27,19.09,45.83,3.61,12.66,5.59,26.34,10.27,38.59,9.14,23.92,19.49,46.83,39.69,61.77,11.86,8.77,25.96,14.78,38.61,22.15,12.19,7.12,23.88,15.49,35.73,23.29,9.82,6.44,19.78,12.91,30.46,17.67,14.63,6.49,30.21,9.82,45.26,15.02Z"/>
      <path class="cls-1" d="M997.82,1022.49c14.71-9.04,27.53-20.9,37.45-35.04,15.87-22.63,39.76-40.89,59.3-57.56,30.19-25.7,62.12-51.11,88.79-81.1,57.21-64.33,115.21-141.52,101.66-233.29-3.28-22.18-8.04-43.97-9.35-66.54-1.38-23.56,3.92-47.71,10.96-70.29,15.09-48.45,45.49-91.46,71.4-134.13,25.64-42.21,43.34-90.25,74.71-128.35,16.51-20.05,31.15-41.77,45.12-63.95-4.4-1.23-8.82-2.5-13.31-3.78-92.68-26.34-206.66-59.48-318.14-92.44-3.28-.97-6.55-1.95-9.84-2.9.08.3.16.6.22.89,6.21,29.13,5.9,60.05,5.3,90.06-.6,30.3-1.96,60.19-7,90.32-5.14,30.74-12.07,61.01-14.61,92.08-4.43,54.25,19.74,102.49,29.02,153.95,5.48,30.5,2.7,62.62,6.26,93.51,3.85,33.49,15.6,61.98,7.61,96.78-7.38,32.12-31.8,59.17-49.63,85.61-19.47,28.92-40.31,52.13-69.42,69.87-23.46,14.3-48.26,25.83-71.93,39.67-26.06,15.22-51.16,33.31-75.86,51.01-23.2,16.62-46.87,32.45-71.13,47.19-23.43,14.29-48.17,25.41-70.7,41.52-17.36,12.41-32.02,28.23-43.98,46.45-12.16,18.49-20.9,45.92-42.19,54.51-12.04,4.87-25.04-1.81-37.29-10.14-12.77-10.04-24.1-21.6-30.76-27.8-26.21-24.37-47.17-48.04-55.18-85.93-8.17-38.58-5.15-79.29-13.18-117.92-9.35-44.95-31.32-86.72-58.83-121-29.91-37.27-65.82-65.2-102.27-94.57-43.23-34.86-81.35-76.28-121.76-114.6-40.51-38.39-81.84-74.45-119.96-115.74-15.83-17.17-32.95-31.26-52.14-43.72-1.39,4.23-2.74,8.43-4.1,12.65-5.64,17.44-11.12,34.65-16.42,51.61-1.18,3.77-2.35,7.55-3.53,11.28,7.97,5.43,15.82,10.95,23.55,16.72,17.52,13.12,34.4,27.25,50.2,42.6,16.7,16.23,27.08,38,42.31,55.61,14.69,16.96,37.47,25.15,54.36,39.35,19.85,16.68,33.34,41.76,53.19,58.97,39.47,34.18,76.1,72.07,111.17,111.28,17.19,19.19,32.95,39.57,47.78,60.9,16.42,23.57,24.44,50.37,33.29,78.11,6.19,19.39,14.86,37.56,23.04,55.95,10.53,23.71,14.81,46.54,15.7,73.11,1.01,30.25,9.43,56.08,33.6,72.74,20.65,14.24,42.44,26.75,61.8,42.97,9.52,8.01,16.71,18.15,24.3,27.93-.12.39-.13.83.24,1.17.87.79,1.68,1.59,2.49,2.36,5.27,6.56,10.88,12.81,17.72,17.93.62.45,1.29.42,1.82.11,7.61,5.51,16.18,8.52,28.98,6.72,25-3.51,47.56-21.54,71.99-28.4,27.34-7.63,47.28-27.04,69.94-44.46,10.06-7.73,19.74-15.81,29.05-24.54,10.25-9.56,24.57-31.5,40.01-29.51.4.06.76.07,1.13.02l107.09-65.8Z"/>
    </g>
  </g>
  <g id="Layer_26" data-name="Layer 26">
    <g class="cls-15">
      <path class="cls-12" d="M1104.06,2159.35c-.46-8.1.4-16.14-.52-24.24-.55-4.95-6.97-6.55-10.5-3.05-1.96,1.96-3.43,4.42-4.56,7.13-10.72,14.6-24.8,46.96.23,52.23,11.71,2.46,18.64-6.09,18.24-16.06-.21-5.41-2.58-10.58-2.89-16Z"/>
      <path class="cls-6" d="M1361.78,2355.49c.27-10.81,1.14-23.54-5.07-32.7-.52-.77-1.25-1.26-2.06-1.51-1.15-1.44-3.71-1.94-5.36-.3-10.15,10.16-14.35,26.37-15.95,39.73-1.32,11.04-.59,22.16,12.43,26.35,10.54,3.39,17.99-3.17,18.61-12.57.43-6.37-1.36-12.74-2.59-19Z"/>
      <path class="cls-6" d="M659.75,972.9c-.28-2.75-.63-6.51-2.94-7.91h0c-.62-.8-1.66-1.17-2.49-.43-.08.07-.15.14-.22.21-1.26.41-2.43,1.41-3.01,2.72-.28.66-.54,1.35-.77,2.05-3.84,6.4-5.57,15.14-6.67,22.41-.9,5.88-3.53,19.81,1.71,23.49,5.84,4.11,13.2-3.45,15.56-9.88,3.76-10.24-.13-22.36-1.17-32.66Z"/>
      <path class="cls-6" d="M1030.63,665.52c-1.42-11.35-3.13-22.62-5.39-33.85-.59-2.92-4.52-4.59-6.83-1.98-3.89,4.41-5.71,9.54-6.64,14.95-.04.11-.08.23-.13.35-1.28,2.32-2.09,4.85-2.61,7.47-3.77,11.56-6.34,23.11-7.89,35.8-1.08,8.9-3.43,24.51,10.59,24.64,11.71.1,18.56-12.92,20.4-21.55,1.79-8.41-.46-17.47-1.51-25.83Z"/>
      <path class="cls-16" d="M1094.89,2196.51c-.21-3.05-.3-7.91-1.95-9.94-.23-.29-.52-.44-.83-.49-.58-.8-1.57.06-1.55,1.31,0,.14,0,.28,0,.43-.15.91-.17,1.85-.1,2.79-.45,6.28-1.94,13.48,1.25,18.28,1.03,1.56,2.94.36,3.12-1.8.29-3.55.3-7.02.06-10.58Z"/>
      <path class="cls-12" d="M3414.67,567.88c-.46-8.1.4-16.14-.52-24.24-.55-4.95-6.97-6.55-10.5-3.05-1.96,1.96-3.43,4.42-4.56,7.13-10.72,14.6-24.8,46.96.23,52.23,11.71,2.46,18.64-6.09,18.24-16.06-.21-5.41-2.58-10.58-2.89-16Z"/>
      <path class="cls-11" d="M3405.5,605.04c-.21-3.05-.3-7.91-1.95-9.94-.23-.29-.52-.44-.83-.49-.58-.8-1.57.06-1.55,1.31,0,.14,0,.28,0,.43-.15.91-.17,1.85-.1,2.79-.45,6.28-1.94,13.48,1.25,18.28,1.03,1.56,2.94.36,3.12-1.8.29-3.55.3-7.02.06-10.58Z"/>
      <path class="cls-5" d="M1353.65,2388.72c-.23-3.38-.33-8.76-2.15-11.01-.26-.31-.58-.49-.92-.54-.65-.9-1.74.06-1.71,1.44,0,.16,0,.32,0,.48-.18,1.02-.2,2.06-.13,3.1-.48,6.96-2.14,14.93,1.39,20.25,1.14,1.73,3.26.4,3.45-1.99.33-3.93.33-7.77.07-11.72Z"/>
      <path class="cls-6" d="M869.77,2524.39c.27-10.81,1.14-23.54-5.07-32.7-.52-.77-1.25-1.26-2.06-1.51-1.15-1.44-3.71-1.94-5.36-.3-10.15,10.16-14.35,26.37-15.95,39.73-1.32,11.04-.59,22.16,12.43,26.35,10.54,3.39,17.99-3.17,18.61-12.57.43-6.37-1.36-12.74-2.59-19Z"/>
      <path class="cls-8" d="M861.65,2557.61c-.23-3.38-.33-8.76-2.15-11.01-.26-.31-.58-.49-.92-.54-.65-.9-1.74.06-1.71,1.44,0,.16,0,.32,0,.48-.18,1.02-.2,2.06-.13,3.1-.48,6.96-2.14,14.93,1.39,20.25,1.14,1.73,3.26.4,3.45-1.99.33-3.93.33-7.77.07-11.72Z"/>
      <path class="cls-6" d="M3727.45,846.97c.27-10.81,1.14-23.54-5.07-32.7-.52-.77-1.25-1.26-2.06-1.51-1.15-1.44-3.71-1.94-5.36-.3-10.15,10.16-14.35,26.37-15.95,39.73-1.32,11.04-.59,22.16,12.43,26.35,10.54,3.39,17.99-3.17,18.61-12.57.43-6.37-1.36-12.74-2.59-19Z"/>
      <path class="cls-9" d="M3719.32,880.2c-.23-3.38-.33-8.76-2.15-11.01-.26-.31-.58-.49-.92-.54-.65-.9-1.74.06-1.71,1.44,0,.16,0,.32,0,.48-.18,1.02-.2,2.06-.13,3.1-.48,6.96-2.14,14.93,1.39,20.25,1.14,1.73,3.26.4,3.45-1.99.33-3.93.33-7.77.07-11.72Z"/>
      <path class="cls-7" d="M655.8,1014.67c-.2-2.94-.3-7.64-1.88-9.6-.22-.28-.51-.42-.8-.47-.57-.78-1.52.05-1.49,1.26,0,.13,0,.28,0,.42-.15.89-.17,1.78-.1,2.69-.42,6.07-1.87,13.01,1.21,17.64,1,1.5,2.84.34,3.01-1.74.28-3.42.29-6.77.06-10.2Z"/>
      <path class="cls-10" d="M1020.1,708.02c-.24-3.67-.36-9.51-2.34-11.96-.27-.34-.63-.53-.99-.58-.71-.98-1.89.06-1.86,1.57,0,.16,0,.33,0,.51-.19,1.11-.21,2.22-.13,3.36-.53,7.55-2.33,16.19,1.5,21.95,1.24,1.87,3.53.43,3.75-2.16.35-4.27.36-8.43.07-12.7Z"/>
    </g>
  </g>
</svg>